<svg xmlns="http://www.w3.org/2000/svg" viewBox="0 0 120 140" role="img" aria-label="nagi happy"><path d="M40 118 C40 92 45 76 60 76 C75 76 80 92 80 118 C80 124 70 128 60 128 C50 128 40 124 40 118 Z" fill="#7FC8B9" stroke="#3d6a60" stroke-width="2.5" stroke-linejoin="round"/><path d="M56 16 Q58 8 62 6 M60 17 Q63 10 67 9" stroke="#3d6a60" stroke-width="2.4" fill="none" stroke-linecap="round"/><ellipse cx="60" cy="100" rx="13" ry="16" fill="#F2FBF8"/><g stroke="#3d6a60" stroke-width="2.5" stroke-linejoin="round"><rect x="78" y="86" width="20" height="26" rx="3" fill="#fdf6ec"/><rect x="84" y="83" width="8" height="6" rx="2" fill="#136B58"/><path d="M82 94 h12 M82 100 h12 M82 106 h8" stroke="#c9b89a" stroke-width="1.6" stroke-linecap="round"/></g><ellipse cx="39" cy="96" rx="8.5" ry="12" fill="#7FC8B9" stroke="#3d6a60" stroke-width="2.5" stroke-linejoin="round" stroke-linecap="round"/><ellipse cx="81" cy="96" rx="8.5" ry="12" fill="#7FC8B9" stroke="#3d6a60" stroke-width="2.5" stroke-linejoin="round" stroke-linecap="round"/><ellipse cx="50" cy="126" rx="8" ry="5" fill="#7FC8B9" stroke="#3d6a60" stroke-width="2.5"/><ellipse cx="70" cy="126" rx="8" ry="5" fill="#7FC8B9" stroke="#3d6a60" stroke-width="2.5"/><circle cx="60" cy="50" r="33" fill="#7FC8B9" stroke="#3d6a60" stroke-width="2.5"/><path d="M44 51 Q48 45 52 51" stroke="#3d6a60" stroke-width="2.6" fill="none" stroke-linecap="round"/><path d="M68 51 Q72 45 76 51" stroke="#3d6a60" stroke-width="2.6" fill="none" stroke-linecap="round"/><circle cx="60" cy="56.5" r="1.6" fill="#3d6a60"/><path d="M52 60 Q60 70 68 60 Z" fill="#a3505e"/><path d="M55 64 Q60 68 65 64 Z" fill="#f2a0ac"/><ellipse cx="42" cy="58" rx="5" ry="3" fill="#ff9fbf" opacity="0.65"/><ellipse cx="78" cy="58" rx="5" ry="3" fill="#ff9fbf" opacity="0.65"/></svg>