<svg xmlns="http://www.w3.org/2000/svg" viewBox="0 0 120 140" role="img" aria-label="kurumi clap"><path d="M42 26 C36 8 40 -2 47 0 C54 2 52 16 50 26 Z" fill="#8B87A3" stroke="#4a4560" stroke-width="2.5" stroke-linejoin="round"/><path d="M44 22 C42 10 44 4 47 4 C50 5 49 16 48 22 Z" fill="#6E6A85"/><path d="M74 24 C84 16 94 18 96 26 C97 32 88 34 78 32 Z" fill="#8B87A3" stroke="#4a4560" stroke-width="2.5" stroke-linejoin="round"/><path d="M78 26 C85 22 91 23 92 27 C92 30 86 31 80 30 Z" fill="#6E6A85"/><path d="M40 118 C40 92 45 76 60 76 C75 76 80 92 80 118 C80 124 70 128 60 128 C50 128 40 124 40 118 Z" fill="#8B87A3" stroke="#4a4560" stroke-width="2.5" stroke-linejoin="round"/><circle cx="86" cy="106" r="8" fill="#B9B4CC" stroke="#4a4560" stroke-width="2.5" stroke-linejoin="round"/><g transform="rotate(-14 46 20)"><path d="M34 22 L46 4 L58 22 Z" fill="#5F42A8" stroke="#4a4560" stroke-width="2.5" stroke-linejoin="round"/><rect x="30" y="20" width="32" height="5" rx="2.5" fill="#2E2440" stroke="#4a4560" stroke-width="2.5" stroke-linejoin="round"/></g><ellipse cx="33" cy="80" rx="8" ry="6" fill="#8B87A3" stroke="#4a4560" stroke-width="2.5" stroke-linejoin="round" stroke-linecap="round"/><ellipse cx="87" cy="80" rx="8" ry="6" fill="#8B87A3" stroke="#4a4560" stroke-width="2.5" stroke-linejoin="round" stroke-linecap="round"/><path d="M24 70 l-4 -5 M96 70 l4 -5" stroke="#4a4560" stroke-width="2" stroke-linecap="round" opacity="0.7"/><ellipse cx="50" cy="126" rx="8" ry="5" fill="#8B87A3" stroke="#4a4560" stroke-width="2.5"/><ellipse cx="70" cy="126" rx="8" ry="5" fill="#8B87A3" stroke="#4a4560" stroke-width="2.5"/><circle cx="60" cy="50" r="33" fill="#8B87A3" stroke="#4a4560" stroke-width="2.5"/><path d="M44 51 Q48 45 52 51" stroke="#4a4560" stroke-width="2.6" fill="none" stroke-linecap="round"/><path d="M68 51 Q72 45 76 51" stroke="#4a4560" stroke-width="2.6" fill="none" stroke-linecap="round"/><circle cx="60" cy="56.5" r="1.6" fill="#4a4560"/><path d="M52 60 Q60 70 68 60 Z" fill="#a3505e"/><path d="M55 64 Q60 68 65 64 Z" fill="#f2a0ac"/><ellipse cx="42" cy="58" rx="5" ry="3" fill="#ff9fbf" opacity="0.65"/><ellipse cx="78" cy="58" rx="5" ry="3" fill="#ff9fbf" opacity="0.65"/></svg>