<svg xmlns="http://www.w3.org/2000/svg" viewBox="0 0 120 140" role="img" aria-label="kurumi sad"><path d="M42 26 C36 8 40 -2 47 0 C54 2 52 16 50 26 Z" fill="#8B87A3" stroke="#4a4560" stroke-width="2.5" stroke-linejoin="round"/><path d="M44 22 C42 10 44 4 47 4 C50 5 49 16 48 22 Z" fill="#6E6A85"/><path d="M74 24 C84 16 94 18 96 26 C97 32 88 34 78 32 Z" fill="#8B87A3" stroke="#4a4560" stroke-width="2.5" stroke-linejoin="round"/><path d="M78 26 C85 22 91 23 92 27 C92 30 86 31 80 30 Z" fill="#6E6A85"/><path d="M40 118 C40 92 45 76 60 76 C75 76 80 92 80 118 C80 124 70 128 60 128 C50 128 40 124 40 118 Z" fill="#8B87A3" stroke="#4a4560" stroke-width="2.5" stroke-linejoin="round"/><circle cx="86" cy="106" r="8" fill="#B9B4CC" stroke="#4a4560" stroke-width="2.5" stroke-linejoin="round"/><g transform="rotate(-14 46 20)"><path d="M34 22 L46 4 L58 22 Z" fill="#5F42A8" stroke="#4a4560" stroke-width="2.5" stroke-linejoin="round"/><rect x="30" y="20" width="32" height="5" rx="2.5" fill="#2E2440" stroke="#4a4560" stroke-width="2.5" stroke-linejoin="round"/></g><ellipse cx="39" cy="96" rx="8.5" ry="12" fill="#8B87A3" stroke="#4a4560" stroke-width="2.5" stroke-linejoin="round" stroke-linecap="round"/><ellipse cx="81" cy="96" rx="8.5" ry="12" fill="#8B87A3" stroke="#4a4560" stroke-width="2.5" stroke-linejoin="round" stroke-linecap="round"/><ellipse cx="50" cy="126" rx="8" ry="5" fill="#8B87A3" stroke="#4a4560" stroke-width="2.5"/><ellipse cx="70" cy="126" rx="8" ry="5" fill="#8B87A3" stroke="#4a4560" stroke-width="2.5"/><circle cx="60" cy="50" r="33" fill="#8B87A3" stroke="#4a4560" stroke-width="2.5"/><circle cx="48" cy="50" r="3.1" fill="#4a4560"/><circle cx="72" cy="50" r="3.1" fill="#4a4560"/><path d="M54 56 q3 4 0 6 q-3 -2 0 -6" fill="#7ab6dd"/><circle cx="60" cy="56.5" r="1.6" fill="#4a4560"/><path d="M43 41 L53 45" stroke="#4a4560" stroke-width="2" stroke-linecap="round"/><path d="M77 41 L67 45" stroke="#4a4560" stroke-width="2" stroke-linecap="round"/><path d="M54 65 Q60 59 66 65" stroke="#4a4560" stroke-width="2.4" fill="none" stroke-linecap="round"/><ellipse cx="42" cy="58" rx="5" ry="3" fill="#ff9fbf" opacity="0.4"/><ellipse cx="78" cy="58" rx="5" ry="3" fill="#ff9fbf" opacity="0.4"/></svg>