<svg xmlns="http://www.w3.org/2000/svg" viewBox="0 0 120 140" role="img" aria-label="beni surprised"><path d="M32 32 L24 4 L48 20 Z" fill="#D96A3F" stroke="#7a3a1f" stroke-width="2.5" stroke-linejoin="round"/><path d="M88 32 L96 4 L72 20 Z" fill="#D96A3F" stroke="#7a3a1f" stroke-width="2.5" stroke-linejoin="round"/><path d="M33 26 L29 11 L43 20 Z" fill="#FFE8DA"/><path d="M87 26 L91 11 L77 20 Z" fill="#FFE8DA"/><path d="M40 118 C40 92 45 76 60 76 C75 76 80 92 80 118 C80 124 70 128 60 128 C50 128 40 124 40 118 Z" fill="#D96A3F" stroke="#7a3a1f" stroke-width="2.5" stroke-linejoin="round"/><path d="M78 112 C96 116 106 104 104 88 C103 82 97 82 96 90 C95 100 88 104 78 102 Z" fill="#D96A3F" stroke="#7a3a1f" stroke-width="2.5" stroke-linejoin="round"/><path d="M100 84 C104 82 105 88 103 93 C99 94 96 90 100 84 Z" fill="#FFE8DA"/><ellipse cx="60" cy="102" rx="12" ry="15" fill="#FFE8DA"/><ellipse cx="39" cy="96" rx="8.5" ry="12" fill="#D96A3F" stroke="#7a3a1f" stroke-width="2.5" stroke-linejoin="round" stroke-linecap="round"/><ellipse cx="81" cy="96" rx="8.5" ry="12" fill="#D96A3F" stroke="#7a3a1f" stroke-width="2.5" stroke-linejoin="round" stroke-linecap="round"/><ellipse cx="50" cy="126" rx="8" ry="5" fill="#D96A3F" stroke="#7a3a1f" stroke-width="2.5"/><ellipse cx="70" cy="126" rx="8" ry="5" fill="#D96A3F" stroke="#7a3a1f" stroke-width="2.5"/><circle cx="60" cy="50" r="33" fill="#D96A3F" stroke="#7a3a1f" stroke-width="2.5"/><circle cx="48" cy="50" r="4" fill="#7a3a1f"/><circle cx="72" cy="50" r="4" fill="#7a3a1f"/><circle cx="49.4" cy="48.6" r="1.3" fill="#fff"/><circle cx="73.4" cy="48.6" r="1.3" fill="#fff"/><path d="M57.5 55.5 L62.5 55.5 L60 58.5 Z" fill="#7a3a1f"/><path d="M44 39 Q48 36 52 38" stroke="#7a3a1f" stroke-width="2" fill="none" stroke-linecap="round"/><path d="M68 38 Q72 36 76 39" stroke="#7a3a1f" stroke-width="2" fill="none" stroke-linecap="round"/><ellipse cx="60" cy="63" rx="4.4" ry="5.4" fill="#a3505e"/><ellipse cx="60" cy="65" rx="2.2" ry="2.4" fill="#f2a0ac"/><ellipse cx="42" cy="58" rx="5" ry="3" fill="#ff9fbf" opacity="0.4"/><ellipse cx="78" cy="58" rx="5" ry="3" fill="#ff9fbf" opacity="0.4"/></svg>