<svg xmlns="http://www.w3.org/2000/svg" viewBox="0 0 120 140" role="img" aria-label="kinako clap"><path d="M30 34 C22 34 20 48 26 54 C31 58 36 52 35 44 Z" fill="#E3B563" stroke="#8a6a3a" stroke-width="2.5" stroke-linejoin="round"/><path d="M90 34 C98 34 100 48 94 54 C89 58 84 52 85 44 Z" fill="#E3B563" stroke="#8a6a3a" stroke-width="2.5" stroke-linejoin="round"/><path d="M40 118 C40 92 45 76 60 76 C75 76 80 92 80 118 C80 124 70 128 60 128 C50 128 40 124 40 118 Z" fill="#F2CD8A" stroke="#8a6a3a" stroke-width="2.5" stroke-linejoin="round"/><ellipse cx="60" cy="100" rx="14" ry="17" fill="#FBEDD3"/><g><ellipse cx="58" cy="20" rx="20" ry="9" fill="#8a5a2b" stroke="#8a6a3a" stroke-width="2.5" stroke-linejoin="round"/><path d="M40 19 C42 8 52 4 60 6 C70 8 76 12 76 18 Z" fill="#8a5a2b" stroke="#8a6a3a" stroke-width="2.5" stroke-linejoin="round"/><circle cx="58" cy="7" r="2.6" fill="#8a5a2b" stroke="#8a6a3a" stroke-width="2.5" stroke-linejoin="round"/></g><ellipse cx="33" cy="80" rx="8" ry="6" fill="#F2CD8A" stroke="#8a6a3a" stroke-width="2.5" stroke-linejoin="round" stroke-linecap="round"/><ellipse cx="87" cy="80" rx="8" ry="6" fill="#F2CD8A" stroke="#8a6a3a" stroke-width="2.5" stroke-linejoin="round" stroke-linecap="round"/><path d="M24 70 l-4 -5 M96 70 l4 -5" stroke="#8a6a3a" stroke-width="2" stroke-linecap="round" opacity="0.7"/><ellipse cx="50" cy="126" rx="8" ry="5" fill="#F2CD8A" stroke="#8a6a3a" stroke-width="2.5"/><ellipse cx="70" cy="126" rx="8" ry="5" fill="#F2CD8A" stroke="#8a6a3a" stroke-width="2.5"/><circle cx="60" cy="50" r="33" fill="#F2CD8A" stroke="#8a6a3a" stroke-width="2.5"/><path d="M44 51 Q48 45 52 51" stroke="#8a6a3a" stroke-width="2.6" fill="none" stroke-linecap="round"/><path d="M68 51 Q72 45 76 51" stroke="#8a6a3a" stroke-width="2.6" fill="none" stroke-linecap="round"/><circle cx="60" cy="56.5" r="1.6" fill="#8a6a3a"/><path d="M52 60 Q60 70 68 60 Z" fill="#a3505e"/><path d="M55 64 Q60 68 65 64 Z" fill="#f2a0ac"/><ellipse cx="42" cy="58" rx="5" ry="3" fill="#ff9fbf" opacity="0.65"/><ellipse cx="78" cy="58" rx="5" ry="3" fill="#ff9fbf" opacity="0.65"/></svg>